<?xml version="1.0" standalone="no"?>
<!DOCTYPE svg PUBLIC "-//W3C//DTD SVG 20010904//EN"
 "http://www.w3.org/TR/2001/REC-SVG-20010904/DTD/svg10.dtd">
<svg version="1.0" xmlns="http://www.w3.org/2000/svg"
 width="16.000000pt" height="16.000000pt" viewBox="0 0 16.000000 16.000000"
 preserveAspectRatio="xMidYMid meet">
<metadata>
Created by potrace 1.11, written by Peter Selinger 2001-2013
</metadata>
<g transform="translate(0.000000,16.000000) scale(0.002286,-0.002286)"
fill="#000000" stroke="none">
<path d="M146 6969 c-24 -13 -49 -19 -66 -15 -19 3 -34 -1 -48 -14 -18 -17
-19 -24 -10 -52 5 -18 12 -109 14 -202 2 -126 7 -178 19 -202 9 -18 13 -46 10
-62 -11 -65 -8 -121 8 -144 9 -13 24 -33 33 -46 11 -15 17 -47 19 -95 2 -39 3
-80 4 -89 1 -10 16 -34 35 -54 30 -32 156 -290 156 -318 0 -6 12 -22 27 -38
25 -27 26 -30 16 -85 -10 -54 -9 -62 18 -120 16 -34 29 -68 29 -75 0 -6 13
-26 29 -43 17 -16 32 -41 35 -55 7 -40 18 -63 43 -90 13 -14 23 -29 23 -33 0
-5 14 -28 31 -52 17 -24 29 -47 26 -52 -3 -5 3 -45 14 -88 12 -47 18 -95 15
-119 -3 -29 2 -54 17 -86 15 -33 22 -69 25 -135 1 -49 5 -100 8 -113 3 -13 36
-53 74 -89 42 -40 71 -76 75 -94 4 -16 11 -32 17 -35 25 -16 41 -83 44 -184 3
-168 14 -226 47 -249 14 -10 18 -21 14 -45 -3 -19 1 -39 9 -51 8 -10 14 -27
14 -37 0 -10 15 -35 33 -55 18 -21 59 -73 91 -115 31 -43 97 -114 146 -159 50
-47 94 -95 100 -113 15 -44 21 -105 24 -256 2 -151 0 -144 104 -283 28 -37 56
-85 62 -108 6 -22 22 -50 36 -61 13 -12 24 -27 24 -34 0 -7 9 -19 19 -27 11
-7 35 -42 53 -78 19 -37 43 -69 58 -76 31 -15 43 -47 35 -94 -6 -32 -2 -42 25
-72 17 -20 36 -51 41 -69 5 -18 21 -46 37 -63 58 -63 72 -87 72 -126 0 -20 7
-44 15 -53 8 -8 15 -23 15 -33 1 -28 20 -55 89 -129 70 -75 91 -114 91 -169 0
-24 16 -64 52 -128 29 -50 53 -100 54 -109 2 -28 30 -64 69 -88 19 -12 42 -35
50 -50 9 -17 46 -47 92 -75 43 -26 88 -56 100 -68 28 -25 69 -25 120 1 21 10
49 22 63 25 14 4 52 27 85 52 75 57 188 115 286 148 41 14 100 37 130 50 90
39 145 122 227 336 38 100 39 105 27 155 -6 28 -20 69 -30 91 -19 42 -24 74
-26 168 -2 48 2 62 20 80 19 20 31 22 113 20 57 -1 103 -7 122 -17 17 -8 39
-17 49 -20 14 -4 17 -16 15 -63 -2 -48 3 -68 27 -111 35 -64 69 -84 142 -83
l54 0 -65 -64 c-75 -72 -94 -119 -74 -176 26 -75 108 -95 186 -47 26 17 56 39
67 49 21 18 22 18 97 -59 111 -111 119 -145 63 -240 -55 -92 -77 -165 -82
-272 -6 -116 15 -189 84 -292 99 -147 246 -257 366 -274 56 -8 171 -8 232 -1
72 10 112 19 171 40 104 38 190 91 275 172 l48 45 -525 529 c-289 291 -528
532 -532 535 -3 4 200 213 453 466 l459 459 191 -189 c104 -103 255 -252 335
-330 80 -78 236 -232 347 -342 l202 -200 29 23 c40 33 115 133 147 199 34 67
76 176 82 210 9 60 11 260 2 300 -26 123 -135 266 -271 356 -170 113 -322 120
-515 23 -56 -29 -115 -53 -130 -53 -45 -2 -103 32 -177 106 l-69 69 26 27 c65
68 70 164 12 212 -21 17 -97 18 -132 0 -15 -8 -54 -36 -87 -64 -49 -42 -57
-46 -51 -25 12 35 6 90 -11 117 -8 12 -33 34 -56 49 -35 23 -53 28 -117 30
-81 2 -117 11 -162 44 -26 18 -27 22 -16 47 19 46 57 90 95 112 33 20 129 42
242 55 25 3 56 7 70 10 14 2 42 7 62 10 122 17 227 51 251 82 10 13 24 29 31
36 26 26 66 105 60 120 -3 8 2 27 11 40 11 17 14 36 10 59 -9 47 6 78 65 134
62 58 73 82 58 124 -8 23 -7 35 1 43 6 6 11 26 11 45 0 41 12 65 61 119 37 41
39 45 39 112 0 60 4 74 26 100 58 70 49 112 -51 216 -36 39 -74 80 -82 93 -9
13 -32 30 -52 38 -96 40 -221 76 -280 80 -192 14 -221 22 -221 67 0 20 -34 74
-60 94 -8 7 -28 15 -45 18 -16 4 -46 17 -65 29 -19 13 -44 26 -55 30 -11 3
-33 18 -50 32 -46 40 -101 76 -202 133 -64 36 -93 58 -93 70 0 26 -19 38 -70
46 -29 4 -52 14 -63 28 -124 149 -163 185 -206 193 -20 3 -49 10 -66 15 -16 4
-65 8 -107 7 -59 -1 -84 3 -110 18 -18 11 -48 21 -66 22 -19 1 -64 13 -100 27
-37 13 -104 38 -149 54 -44 16 -107 32 -140 36 -126 13 -149 17 -181 32 -18 9
-41 27 -49 40 -9 13 -31 30 -50 38 -19 8 -67 49 -106 92 -140 150 -176 183
-199 183 -13 0 -33 7 -46 15 -15 11 -56 17 -139 20 -116 5 -119 4 -156 -22
-57 -40 -125 -39 -259 4 -92 30 -117 44 -183 98 -108 88 -155 109 -252 117
-18 1 -35 8 -38 16 -3 7 -9 11 -14 8 -5 -3 -26 1 -47 10 -30 13 -58 15 -129
10 l-90 -6 -75 56 c-41 30 -84 63 -95 73 -11 10 -40 26 -64 35 -24 9 -52 28
-63 41 -27 34 -105 88 -163 112 -81 34 -141 37 -236 12 -122 -31 -158 -29
-222 13 -77 51 -217 99 -270 92 -25 -4 -67 1 -103 10 -81 21 -120 20 -168 -5z
m542 -448 c6 0 12 -8 12 -17 0 -9 9 -27 20 -41 18 -23 20 -37 16 -115 -4 -98
-10 -111 -78 -161 l-38 -28 -73 31 c-82 34 -117 61 -117 90 0 10 -4 21 -9 24
-4 3 -11 19 -14 36 -6 27 1 37 70 104 84 83 100 89 211 77z m1278 -408 c27
-15 52 -31 55 -35 3 -5 10 -8 15 -7 23 4 33 -4 53 -43 20 -40 20 -43 3 -71
-20 -34 -99 -82 -104 -65 -3 9 -13 8 -37 -1 -29 -13 -33 -12 -46 6 -12 17 -23
19 -87 16 l-73 -3 -43 51 c-44 53 -62 97 -45 108 6 3 12 15 14 26 4 16 13 20
49 22 95 4 183 12 188 18 7 7 4 8 58 -22z m-344 -388 c13 -8 32 -15 44 -15 38
0 74 -37 74 -76 0 -19 7 -48 15 -65 21 -39 13 -53 -96 -159 -49 -48 -89 -92
-89 -99 0 -22 -49 -32 -80 -16 -36 18 -99 123 -98 162 0 15 -9 50 -21 77 -13
27 -21 59 -18 72 2 13 0 24 -4 24 -18 0 -8 42 14 64 16 16 41 25 79 30 35 5
62 14 73 26 16 18 20 18 51 5 19 -8 44 -21 56 -30z m1366 -31 c29 -8 110 -39
180 -70 70 -30 143 -57 163 -59 21 -2 51 -11 67 -19 18 -10 33 -12 37 -6 13
21 35 -3 35 -40 0 -22 5 -42 10 -45 32 -20 -15 -89 -79 -117 -76 -32 -188 -59
-247 -59 -82 0 -189 54 -280 142 -40 38 -77 69 -83 69 -13 0 -42 66 -44 102
-2 23 9 37 58 77 66 55 73 56 183 25z m-665 -257 c37 -29 84 -53 140 -71 10
-3 25 -19 35 -35 10 -18 28 -32 44 -35 35 -7 36 -29 8 -135 -29 -112 -42 -126
-126 -128 -128 -4 -227 -1 -276 11 -16 3 -39 8 -53 11 -20 4 -25 11 -25 36 0
16 -7 41 -16 54 -9 13 -17 30 -18 38 -1 8 -9 22 -19 31 -21 21 -21 19 2 62 16
29 17 41 9 60 -15 32 12 69 71 100 33 18 47 21 70 13 19 -7 38 -6 67 4 21 8
40 15 42 16 2 0 22 -14 45 -32z m1979 -182 c43 -5 72 -13 81 -24 16 -18 47
-105 47 -131 0 -25 -106 -114 -142 -118 -18 -2 -72 -21 -121 -42 -121 -51
-168 -47 -203 22 -19 36 -26 156 -12 201 14 46 57 87 99 96 38 8 156 6 251 -4z
m-3204 -154 c34 -18 79 -77 97 -127 23 -64 51 -89 122 -109 86 -24 143 -54
143 -74 0 -10 -7 -39 -16 -65 -13 -39 -26 -53 -71 -82 -52 -33 -56 -34 -96
-23 -54 16 -66 19 -100 24 -15 2 -40 13 -55 23 -15 10 -42 25 -61 32 -40 16
-106 76 -114 105 -4 11 -2 38 3 60 8 34 6 47 -15 88 -40 77 -32 117 30 150 32
17 100 16 133 -2z m2235 -182 c7 -13 21 -28 32 -34 42 -21 45 -25 35 -50 -7
-19 -3 -36 20 -81 17 -31 28 -60 25 -64 -3 -5 6 -20 20 -34 18 -18 25 -36 25
-65 0 -29 6 -44 21 -55 12 -8 19 -20 17 -28 -3 -7 1 -32 8 -56 14 -46 11 -63
-18 -101 -10 -13 -16 -34 -14 -46 7 -38 -23 -61 -80 -59 -27 1 -52 2 -55 3 -4
1 -10 17 -13 36 -4 19 -17 42 -29 52 -17 13 -23 29 -24 59 -1 52 -26 100 -64
123 -17 10 -42 35 -55 55 -14 20 -33 36 -44 36 -17 0 -18 6 -14 61 3 36 -1 76
-8 96 -12 33 -11 35 25 69 20 19 37 39 37 44 0 5 26 24 57 43 61 38 76 37 96
-4z m1056 -316 c82 -47 144 -119 195 -225 42 -87 46 -102 38 -132 -8 -26 -6
-39 5 -56 8 -12 14 -38 14 -58 -1 -20 -2 -45 -2 -55 0 -27 -66 -124 -97 -144
-15 -9 -47 -37 -72 -62 -61 -61 -120 -111 -131 -111 -6 0 -23 -7 -39 -15 -68
-35 -103 -24 -132 42 -28 63 -19 96 52 182 33 40 65 88 72 107 6 19 16 34 20
34 5 0 17 15 28 33 16 25 19 42 14 79 -3 28 -1 61 7 81 12 33 11 36 -23 70
-19 19 -54 47 -77 62 -22 15 -41 30 -42 34 0 3 -2 15 -4 26 -6 31 81 135 113
135 8 0 36 -12 61 -27z m921 -210 c50 -49 64 -71 89 -138 l29 -80 -23 -29
c-20 -26 -27 -46 -42 -135 -7 -41 -33 -81 -65 -101 -17 -10 -34 -17 -38 -15
-3 2 -39 -23 -79 -56 -84 -68 -110 -73 -164 -31 -41 31 -63 67 -59 94 2 10 -2
18 -9 18 -8 0 -10 19 -7 68 4 53 16 92 53 175 27 61 49 125 51 151 7 97 49
132 162 135 39 1 48 -4 102 -56z m-3331 -38 c23 -21 44 -48 47 -60 3 -12 36
-55 74 -95 l68 -74 -3 -60 c-1 -34 -3 -69 -4 -79 -1 -24 -106 -71 -150 -68
-19 1 -64 15 -100 30 -36 16 -87 32 -113 35 -63 9 -88 31 -95 83 -8 61 14 170
36 176 15 4 18 16 18 67 0 82 11 90 108 86 69 -3 75 -5 114 -41z m581 -453
c89 -28 93 -32 96 -96 2 -42 10 -68 33 -106 17 -28 31 -60 31 -73 0 -12 11
-32 23 -44 13 -12 38 -48 56 -80 17 -32 37 -65 43 -74 30 -43 -39 -131 -114
-145 -63 -12 -70 -12 -99 4 -14 8 -48 22 -75 31 -35 11 -54 25 -69 49 -11 18
-38 56 -61 85 -58 74 -62 84 -64 162 -3 190 -8 174 85 253 33 28 60 51 60 51
0 1 25 -7 55 -17z m-883 -383 c42 -14 78 -86 77 -153 0 -38 4 -54 18 -64 24
-17 23 -29 -7 -68 -14 -18 -25 -44 -25 -57 0 -18 -9 -28 -39 -42 -65 -29 -70
-26 -211 131 -20 22 -25 35 -19 45 5 8 8 35 7 62 -2 44 1 50 45 96 28 29 59
51 75 54 15 2 32 5 38 6 6 0 25 -4 41 -10z m1901 -3 c31 -16 66 -53 75 -78 8
-22 -75 -115 -106 -120 -55 -10 -124 69 -112 128 4 25 16 39 48 59 49 29 58
30 95 11z m534 -193 c18 -56 11 -88 -29 -146 -53 -75 -64 -96 -66 -123 -3 -38
-46 -68 -99 -68 -99 0 -128 4 -128 17 0 7 -10 19 -21 27 -12 8 -31 22 -42 31
l-21 16 26 54 c29 60 71 109 93 109 9 0 42 24 74 54 40 37 65 53 78 50 10 -3
36 2 58 10 58 21 61 20 77 -31z m298 36 c0 -7 13 -8 39 -4 29 5 53 0 102 -20
35 -14 76 -27 92 -27 35 -1 46 -15 51 -69 6 -61 -12 -97 -76 -149 -57 -46 -93
-92 -81 -104 7 -7 -35 -56 -48 -56 -4 0 -11 9 -14 20 -4 11 -17 32 -29 48 -13
15 -31 49 -41 76 -11 27 -36 69 -57 93 -67 77 -73 163 -14 189 38 16 76 18 76
3z m526 -356 c10 -16 18 -42 18 -59 0 -28 -46 -77 -434 -463 -478 -474 -462
-461 -522 -401 -34 35 -33 63 5 115 12 17 204 211 427 433 402 398 406 402
447 402 33 0 44 -5 59 -27z m-1235 -89 c34 -31 46 -65 44 -126 -1 -43 -8 -67
-28 -97 -15 -22 -27 -49 -27 -60 0 -29 -41 -34 -92 -11 -24 10 -49 30 -56 42
-18 37 -29 91 -24 118 6 32 5 58 -3 92 -5 19 -2 31 15 48 18 18 30 21 85 17
46 -2 71 -9 86 -23z m478 -18 c9 -8 25 -16 36 -18 23 -4 75 -63 75 -86 0 -19
-39 -71 -109 -144 -56 -60 -81 -70 -116 -44 -18 13 -18 17 -6 67 8 30 13 69
13 87 -1 19 5 44 14 57 8 12 14 27 13 31 -4 23 3 35 29 48 34 19 32 19 51 2z
m-1136 -139 c31 -24 37 -34 32 -54 -3 -14 1 -35 11 -53 14 -22 15 -32 6 -43
-6 -7 -14 -44 -16 -81 -5 -79 -25 -110 -65 -101 -14 2 -44 7 -66 11 -63 8 -89
33 -96 90 -4 27 -12 63 -19 80 -8 19 -10 39 -5 50 4 10 7 23 6 27 -4 18 64 83
103 98 47 19 57 17 109 -24z m817 -173 c67 -10 110 -25 136 -47 22 -19 25 -27
17 -43 -6 -10 -14 -41 -17 -67 -7 -42 -13 -52 -57 -84 -27 -21 -49 -40 -49
-44 0 -11 -69 -60 -91 -64 -36 -7 -55 12 -84 82 -16 37 -39 92 -52 122 l-23
54 20 33 c12 18 35 42 53 53 32 21 33 21 147 5z m2237 -146 c63 -41 89 -72
104 -130 22 -81 -21 -141 -99 -140 -50 1 -87 19 -133 69 -86 90 -92 179 -14
221 38 21 88 14 142 -20z m-3633 -19 c37 -43 55 -91 67 -173 6 -48 15 -73 28
-82 10 -8 22 -29 25 -49 6 -32 15 -40 40 -36 5 1 15 -7 23 -18 7 -11 33 -29
58 -40 51 -23 111 -80 117 -114 3 -13 -4 -39 -14 -58 -10 -18 -18 -43 -18 -55
0 -12 -10 -36 -23 -55 -18 -26 -29 -33 -50 -31 -14 1 -53 -4 -85 -11 -32 -7
-68 -10 -79 -6 -27 10 -113 107 -129 146 -8 18 -14 44 -14 59 0 37 -50 136
-71 141 -10 3 -15 11 -13 18 6 15 -29 101 -51 125 -9 10 -13 30 -11 48 2 18
-1 35 -5 38 -5 3 -7 15 -3 28 3 12 6 29 8 37 13 77 59 118 133 119 34 0 46 -5
67 -31z m2274 -1346 c65 -45 88 -79 97 -145 17 -124 -113 -162 -227 -66 -32
27 -78 116 -78 151 0 51 71 107 127 101 14 -1 51 -20 81 -41z"/>
<path d="M4882 2127 l-342 -342 888 -888 c488 -488 892 -887 896 -887 14 0
676 666 676 680 0 9 -1763 1780 -1773 1780 -1 0 -156 -154 -345 -343z"/>
</g>
</svg>
