<?xml version="1.0" encoding="utf-8"?>
<!-- Generator: Adobe Illustrator 16.0.4, SVG Export Plug-In . SVG Version: 6.00 Build 0)  -->
<!DOCTYPE svg PUBLIC "-//W3C//DTD SVG 1.0//EN" "http://www.w3.org/TR/2001/REC-SVG-20010904/DTD/svg10.dtd">
<svg version="1.0" xmlns="http://www.w3.org/2000/svg" xmlns:xlink="http://www.w3.org/1999/xlink" x="0px" y="0px" width="250px"
	 height="250px" viewBox="0 0 250 250" enable-background="new 0 0 250 250" xml:space="preserve">
<g id="Layer_1">
</g>
<g id="Logos">
	<g>
		<polygon fill="#E13A3E" points="186.683,161.699 162.129,186.217 225.878,249.883 250.431,225.369 186.683,161.699 		"/>
		<path fill="#E13A3E" d="M233.53,164.532c-1.137-6.22-7.841-12.545-13.795-14.897c-5.281-2.082-12.367-0.66-16.712,2.924
			c-4.72,2.072-7.931-2.836-10.953-5.847c1.51-1.323,2.742-2.73,2.83-4.725c0.192-1.694-0.469-3.294-1.982-4.052
			c-3.965-1.507-6.893,2.166-9.534,4.437c1.034-1.227,0.755-3.397,0.278-4.815c-1.13-1.885-3.116-2.727-5.101-3.391
			c-2.832,0.758-6.232,0.184-8.124-2.263c0.948-2.451,2.363-4.436,4.917-5.474c6.794-1.698,13.979-1.319,20.491-4.052
			c1.515-1.701,3.209-3.77,4.343-5.846c-2.264-1.33,1.988-2.556,0.285-4.247c-0.942-3.776,3.873-4.435,4.812-7.64
			c0.287-1.043-1.604-2.549,0.098-3.488c-0.473-2.166,0.568-4.528,2.738-5.749c1.984-2.369-0.376-4.533,1.512-6.979
			c5.098-4.726-3.589-8.31-5.102-12.078c-4.434-1.412-8.306-3.957-13.405-3.208c-1.322-1.693-4.163,0.566-5.576-1.601
			c0.096-1.983-1.412-3.489-2.831-4.9c-2.551,0.467-3.971-2.079-6.232-2.458c-3.21-3.391-7.65-4.989-11.525-7.538
			c0.189-4.15-4.534-0.378-5.291-4.15c-3.017-1.885-3.87-6.51-8.213-6.127c-2.927-1.801-6.802,0.936-9.639-1.889
			c-4.524,0-8.116-2.646-12.267-3.781c-3.875-1.406-9.448,0.57-11.806-3.868c-4.917-1.884-6.899-6.88-11.238-10.276
			c-1.135-0.374-2.366,0.093-3.31-1.226c-3.112,0.093-5.854-0.752-8.783-0.094c-3.59,4.15-9.352,0.469-13.504-0.476
			c-2.548-1.223-4.155-3.771-6.71-4.996c-1.788-1.6-4.341-1.318-6.705-1.787c-0.091-0.851-0.941-0.566-1.605-0.664
			c-2.171-1.605-5.759-0.664-8.403-0.469c-2.074-1.319-4.061-2.928-6.044-4.533c-1.228-1.785-3.966-0.752-4.719-3.016
			c-2.27-2.072-5.007-4.055-8.221-4.621c-4.253-1.599-7.931,2.263-12.465,0.944c-1.506-1.319-3.116-2.164-4.815-2.928
			c-1.607-0.088-3.12-1.216-4.82-1.599C11.969,2.69,8.947-1.455,5.164,1.184c-0.844,0.851-2.26,0.572-3.109,0.29
			C1.298,1.661,0.539,2.41,0.539,3.167c1.516,4.715,0.473,9.337,0.85,14.243c2.459,2.632-0.75,6.222,1.419,8.771
			c3.118,2.356,0.566,6.221,2.264,9.045c2.931,2.182,3.307,5.572,4.909,8.309c0.192,1.693,1.799,2.73,1.516,4.518
			c3.401,1.141,0.66,4.247,1.225,6.51c1.511,1.705,1.703,3.589,2.46,5.473c2.173,0.093,1.414,2.928,2.358,4.247
			c1.892,1.319,1.703,3.77,3.777,4.901c-0.664,3.677,2.358,6.321,0.665,10.095c2.45,2.451,1.795,5.94,1.886,9.051
			c0,4.148,5.572,4.628,5.668,8.298c2.641,2.829,2.261,5.852,1.888,9.434c1.129,1.881-0.473,5.749,2.268,6.969
			c1.134,1.143-1.139,2.461,0.661,3.309c0.185,1.698,0.752,3.017,2.262,3.961c2.46,3.769,5.007,6.884,8.596,9.897
			c4.629,2.742,2.93,8.775,3.587,13.022c-1.794,6.127,5.48,8.863,6.047,14.146c0.571,1.312,2.076,1.693,2.176,3.108
			c2.921,1.414,1.79,5.755,5.472,6.224c0,1.136,1.042,2.361,0,3.401c-0.282,1.405,1.422,2.543,2.456,3.768
			c-0.185,2.644,2.835,3.963,3.964,6.231c0.476,1.028-0.749,2.825,0.949,3.583c0.096,4.617,6.232,6.222,6.609,10.748
			c-0.66,1.788,0.758,3.397,1.702,4.903c0.193,1.702,2.361,2.73,2.078,4.714c0.379,1.704,2.17,2.731,3.593,3.401
			c1.318,3.952,5.76,3.671,7.837,6.694c1.698,0.944,3.399-0.198,4.815-1.04c3.214,0,4.911-3.582,7.841-4.428
			c3.965-2.84,8.972-3.309,13.22-5.664c4.438-3.869,5.573-10.283,7.647-14.617c-0.093-2.545-1.037-4.806-2.267-7.174
			c0.378-1.879-0.658-4.049-0.091-5.934c1.229-3.49,5.854-1.512,8.406-1.604c0.754,0.374,1.6,1.412,2.266,0.943
			c1.795,0.469,0.283,2.546,0.566,3.957c0.567,1.892,1.419,3.685,3.112,5.006c1.417,0.655,4.156,0.562,5.2,0.094
			c-2.078,2.452-6.05,4.518-5.387,8.199c0.098,1.424,1.135,2.644,2.365,3.11c3.21,1.132,5.379-1.417,7.736-3.203
			c2.268,3.203,7.277,5.188,5.953,9.716c-3.774,4.526-5.188,11.599-3.496,17.255c2.181,5.566,7.748,12.067,13.887,14.052
			c9.636,1.885,20.306-0.661,27.579-8.866l-37.97-38.288l32.769-32.724l38.537,37.911c4.91-4.15,7.362-9.624,9.066-15.09
			C233.806,171.977,234.188,168.215,233.53,164.532z M180.169,97.288c-0.187-1.697,0.194-3.392,0.942-4.714
			c1.889-1.697,4.155-1.51,6.521-1.413c1.321,2.078,3.967,2.457,4.438,5.003l1.791,4.812c-3.4,2.626-0.847,7.633-5.001,9.701
			c-3.594,0-5.102,5.856-8.975,4.06c-1.227-1.601-3.591-2.264-2.741-4.622l-0.753-0.379
			C175.826,105.027,178.562,101.343,180.169,97.288z M26.328,26.273c-0.854,1.413-2.551,2.732-4.159,3.77
			c-2.173-0.658-4.252-1.79-6.33-2.922c-0.38-1.699-1.606-3.302-1.606-4.815c3.215-1.505,3.872-5.753,7.937-5.462l2.735,0.282
			c-0.371,2.076,2.364,2.169,1.323,4.153c0.101,0.654,0.757,1.314-0.28,1.788C26.889,23.444,25.661,25.235,26.328,26.273z
			 M167.609,210.561c1.794,1.039,4.154,2.634,4.905,4.713c0.194,1.503,0.763,3.212-0.186,4.529c-1.228,1.599-3.492,1.785-5.19,1.032
			c-2.648-0.939-4.818-3.681-5.291-6.413C161.277,211.401,164.962,209.241,167.609,210.561z M167.037,131.903
			c0.948,1.885,1.046,4.246-0.092,6.127c-2.078,2.071-5.098,2.835-5.005,6.138l-1.795,1.401c-0.661-1.221-0.475-2.726-2.082-3.197
			c-0.749-2.271-1.409-4.996-3.677-6.326c-0.943-1.506-1.42-3.863-0.851-5.183c1.321-0.565,3.589-2.638,4.251-0.279
			C160.994,128.692,163.639,132.465,167.037,131.903z M159.862,88.331c1.889,0.379,2.74,2.924,3.401,4.709
			c1.227,1.043,1.322,3.023,2.076,4.346c-0.098,0.848-0.661,1.605-0.473,2.732c2.078,1.136,0.191,3.401,0.849,5
			c-1.506,1.694-2.263,4.714-4.813,4.996c-0.946,2.264-3.87,3.681-5.475,5.467c-1.795,0.1-3.213,2.271-5.289,1.138
			c-1.232-1.226-1.705-2.262-1.984-3.868c0.377-4.149,4.812-5.385,5.382-9.331c1.416-0.852,2.265-2.265,2.361-3.868
			c-2.55-1.797,2.743-4.809-1.325-5.667c-0.563-2.631-4.531-2.065-4.149-5.275c1.506-1.506,2.544-4.809,5.569-3.869
			C157.032,86.82,159.484,86.068,159.862,88.331z M145.222,150.296c0.664-0.661,1.702-1.519,0.947-2.646
			c0.852-1.039,1.985-1.785,3.208-1.322c-0.089,1.225,1.134,0.757,1.888,0.944c0.95,0.944,2.179,2.362,1.989,3.682
			c-2.083,2.45-3.779,4.9-6.33,6.693c-0.945-0.187-1.982-0.28-2.361-1.418C144.656,154.251,146.169,152.36,145.222,150.296z
			 M141.819,63.905l0.102,0.279c1.604-3.307,6.043-1.885,9.16-2.362c1.886,1.896,5.382-1.224,6.132,2.557
			c0.288,1.785,2.081,3.394,0.195,4.901c-1.511,0.374-1.892,2.262-3.305,2.741c-4.537-0.57-9.257,6.407-12.753,0.653
			C140.788,69.85,140.122,66.547,141.819,63.905z M133.23,138.693c-0.091-1.786,1.795-2.927,2.456-4.153
			c3.4,0.188,3.776-4.9,7.083-3.864l3.399-1.131c0.661,1.797,1.603,2.92,0.852,4.995c-0.754,2.638-4.251,4.249-3.496,7.26
			c-2.174,2.549-5.474,1.511-8.123,1.322C135.401,140.481,130.491,141.426,133.23,138.693z M102.162,45.788
			c6.425,0.199,11.333,4.166,16.998,5.672c1.792-1.04,2.642,2.264,4.059,0.279c1.606,1.04-0.09,2.544,1.326,3.77
			c0.467,1.039-0.854,2.358-1.609,3.302c-4.721,1.704-11.426,4.808-15.865,0.76c-3.302-0.282-4.534-4.908-7.836-5.756
			c-0.473-1.415-1.417-2.922-1.225-4.438L102.162,45.788z M94.887,114.175c-0.853,2.919,3.021,4.335,2.271,7.166
			c2.735,1.605,2.449,4.527,4.627,6.314c0.28,1.984-1.044,3.687-2.65,4.527c-1.605,0.282-3.211,1.318-4.908,0.759
			c-1.513-1.885-4.343-0.562-5.761-3.489c-0.75-2.458-3.872-4.062-4.343-6.792c1.321-3.209-1.703-6.792,1.413-9.341l4.157-3.391
			C91.395,111.246,95.737,110.489,94.887,114.175z M58.997,33.252c1.607-0.091-0.091-1.796,1.516-1.879
			c1.134,0.561,2.928,0.281,3.965-0.196c1.321-0.76,2.739,0.846,4.06-0.469c0.849,1.035,2.551,1.035,3.495,1.975l0.094,0.478
			c1.887-0.947,2.074,0.944,2.735,2.362c1.42,1.029-0.75,1.687-0.473,2.725l-3.3,1.605l-0.099-0.661
			c-1.033-0.092-1.887,1.506-2.919,0.478c-0.192-2.076-2.08,0-2.839-1.138c-0.848,1.039-1.893,0.193-2.926,0.281
			C61.171,36.931,58.433,35.705,58.997,33.252z M48.33,46.743c1.887-2.077,4.626-0.092,6.42-2.642
			c2.271-0.191,2.834,2.446,5.29,1.885c0.944,0.561,2.08,1.318,2.267,2.263c-0.949,1.884,1.228,2.928,0.661,4.621
			c-1.89,3.211-6.047,4.523-7.085,8.008c-0.756,0.198-1.604,0.861-2.261,0.198c-2.552-0.843-2.653-3.584-4.158-5.286
			c1.505-2.634-2.551-4.238-0.944-6.974l-0.572,0.182C47.479,48.348,48.044,47.403,48.33,46.743z M47.004,85.407
			c-2.076-0.566-4.058-1.412-6.136-1.412c-1.516-2.077-4.44-1.417-5.571-3.875c-1.416-0.087-1.512-1.505-1.7-2.45
			c0.471-1.786,1.229-3.678-0.571-5.088c-2.549-4.617,3.402-6.609,6.517-4.617c2.08,1.506,3.403,3.952,3.684,6.124
			c2.364,3.302,6.901,1.604,9.163,4.808c-0.376,1.319-1.04,2.741-1.419,4.06L47.004,85.407z M62.12,137.277
			c-1.232,0.658-2.367,1.796-3.975,1.135c-2.169-1.422-3.583-3.394-4.998-5.383l-1.041-0.65c1.413-1.42,0.469-3.124,0.566-4.724
			c1.889-0.748,2.454-3.957,4.721-3.39c1.326-1.139,2.076,0.378,3.397,0.187c1.138,2.076,3.124,4.625,1.419,7.072
			C66.743,132.842,60.984,134.83,62.12,137.277z M74.964,109.17c-2.652,1.885-5.387,0.663-7.842-0.843
			c-2.174-1.037-5.384,0.083-6.235-2.834c-0.656-2.545,0.097-4.617,0.76-6.979h1.32c-0.476-1.407-0.476-3.303,0-4.897
			c1.795-1.979,3.775,0.566,5.665-0.951c1.325,1.7,4.155,2.265,3.873,5.002c2.17,0.846,2.833,3.773,5.097,4.906
			C76.566,105.119,79.02,108.327,74.964,109.17z M76.378,69.654c-1.135,0-2.266,0-2.737-1.039c1.415-1.973-1.513-2.451-0.853-4.431
			c-3.684-1.22,1.703-3.203-0.66-4.989c0.093-2.368,2.735-3.494,4.534-4.155c1.51,1.319,3.493,0.28,5.002-0.478
			c1.698,2.264,3.78,3.023,6.234,3.78c1.795,0.275,1.135,3.017,3.209,2.45c1.607,0.842,0.38,3.023,0.102,4.239
			c-0.665,1.796-0.287,4.438-2.742,5.378c-1.888,0.379-3.588-0.94-5.196,0.28C81.005,69.56,78.364,70.878,76.378,69.654z
			 M97.722,189.238c-2.266-0.938-4.538,1.137-6.987,0.384c-2.362-2.729-5.291-4.531-4.535-8.494
			c-1.793-1.028-0.665-3.863-3.31-4.056c0.76-1.317-0.661-3.109-1.318-4.521c-1.702-0.945,0.091-2.545-1.13-3.776
			c0.373-2.075,0.373-4.146,2.267-5.467c1.319-1.127,3.112-1.226,4.816-0.478c2.547,2.741,3.019,6.043,3.109,9.532
			c2.743,0.281,0.473,4.612,3.686,3.292c0,1.704,1.417,1.61,2.551,2.177c1.985,1.23,4.251,2.548,3.967,5.094
			C99.135,184.81,100.177,187.922,97.722,189.238z M110.188,157.181c-0.851,2.163,0.757,5.087-1.887,6.407
			c-2.364-1.037-6.708,0.28-6.515-3.678c0.751-1.889-2.364-3.481-0.477-5.368c-0.941-1.703,1.89-1.703,1.513-3.209
			c1.793-0.291,4.158-2.462,5.384,0.088c0.854-0.275,1.414,0.857,1.794,1.418c-0.188,0.565-0.57,1.506-0.093,2.171
			C110.944,155.67,110.944,156.429,110.188,157.181z M119.913,96.729c0-1.139-1.223-1.606-1.985-2.363
			c0.381-2.072-0.092-4.617-2.357-5.936c-2.168-0.279-1.413-3.491-3.871-2.929c-0.756-2.265,1.129-4.341-0.756-6.035
			c-0.097-2.17,2.363-1.976,2.641-3.961c0.379-0.378,0.663-0.848,1.323-0.76c0.284-0.657,1.799-1.036,2.74-1.791
			c1.886,0.188,1.042,2.929,3.118,2.737c1.415,0.66,0.754,1.699,0.283,2.544c0.66,1.605,2.456,3.023,1.886,4.907
			c3.12,1.04,0.283,4.06,2.93,5.188c0.564,0.188,0,0.757,0,1.326c1.034,2.164,1.322,3.96-0.854,5.752
			c0.474,1.22,0.19,2.638-1.411,3.105C122.181,97.668,119.535,99.74,119.913,96.729z M122.558,128.412
			c-0.377-1.138,0.377-1.505,0.472-2.74c1.321-0.749,2.364-1.974,3.869-1.789c1.799,1.04,3.028,1.507,3.782,3.584
			c-0.851,1.609-2.93,4.248-4.816,4.248C124.352,131.146,123.409,129.824,122.558,128.412z M126.244,149.068
			c-0.759-0.757-1.232-1.983-0.663-2.915c1.509-2.271,4.156-0.584,6.043-0.948c0.753,1.311,3.303,2.925,1.891,4.716
			c1.321,2.825-1.983,4.243-1.891,6.792c-1.697,1.121-3.118-0.483-4.726-0.95C125.865,153.598,124.639,151.239,126.244,149.068z
			 M133.984,170.006c-1.794-2.55-2.168-6.138-3.961-8.869c0.468-1.793,2.077-3.396,3.961-3.956l6.896,1.031
			c0.938,0.761,2.456,0.942,2.737,2.363c-1.509,1.314-0.094,4.43-2.362,5.369C138.804,167.077,137.105,171.418,133.984,170.006z
			 M176.674,146.233l-30.695,30.461c-1.791,0.855-3.493-0.841-4.159-2.263c-0.089-1.028,0.575-1.881,0.95-2.826l29.467-29.421
			c0.944-0.385,2.359-0.852,3.399-0.197C176.769,143.122,177.709,144.823,176.674,146.233z M221.439,170.765
			c-1.042,1.786-3.113,2.348-5.104,1.682c-2.264-0.94-4.342-3.008-5.282-5.274c-0.665-1.228-0.477-2.923,0.283-4.051
			c0.943-1.132,2.266-1.318,3.589-1.517c2.359,0.663,4.811,2.181,6.041,4.34C221.626,167.357,222.096,169.34,221.439,170.765z"/>
	</g>
</g>
</svg>
